<svg xmlns="http://www.w3.org/2000/svg" width="48" height="48" viewBox="0 0 48 48" fill="none">
  <!-- 背景渐变 -->
  <defs>
    <linearGradient id="web3Gradient" x1="0%" y1="0%" x2="100%" y2="100%">
      <stop offset="0%" stop-color="#6c5ce7" />
      <stop offset="100%" stop-color="#00cec9" />
    </linearGradient>
    <filter id="glow" x="-20%" y="-20%" width="140%" height="140%">
      <feGaussianBlur stdDeviation="2" result="blur" />
      <feComposite in="SourceGraphic" in2="blur" operator="over" />
    </filter>
  </defs>
  
  <!-- 外部圆环 -->
  <circle cx="24" cy="24" r="22" stroke="url(#web3Gradient)" stroke-width="2" fill="none" opacity="0.6" />
  
  <!-- 六边形网络连接 - 区块链概念 -->
  <path d="M24 10L34 16V28L24 34L14 28V16L24 10Z" stroke="url(#web3Gradient)" stroke-width="2" fill="none" filter="url(#glow)" />
  
  <!-- 中心圆点 - 去中心化概念 -->
  <circle cx="24" cy="24" r="4" fill="url(#web3Gradient)" />
  
  <!-- 连接线 - 网络/区块链节点 -->
  <line x1="24" y1="20" x2="24" y2="10" stroke="url(#web3Gradient)" stroke-width="1.5" />
  <line x1="24" y1="28" x2="24" y2="34" stroke="url(#web3Gradient)" stroke-width="1.5" />
  <line x1="20" y1="24" x2="14" y2="16" stroke="url(#web3Gradient)" stroke-width="1.5" />
  <line x1="20" y1="24" x2="14" y2="28" stroke="url(#web3Gradient)" stroke-width="1.5" />
  <line x1="28" y1="24" x2="34" y2="16" stroke="url(#web3Gradient)" stroke-width="1.5" />
  <line x1="28" y1="24" x2="34" y2="28" stroke="url(#web3Gradient)" stroke-width="1.5" />
  
  <!-- 次级节点 - 连接的网络节点 -->
  <circle cx="14" cy="16" r="2" fill="url(#web3Gradient)" />
  <circle cx="14" cy="28" r="2" fill="url(#web3Gradient)" />
  <circle cx="34" cy="16" r="2" fill="url(#web3Gradient)" />
  <circle cx="34" cy="28" r="2" fill="url(#web3Gradient)" />
  <circle cx="24" cy="10" r="2" fill="url(#web3Gradient)" />
  <circle cx="24" cy="34" r="2" fill="url(#web3Gradient)" />
  
  <!-- 点缀效果 - 增加科技感 -->
  <circle cx="19" cy="19" r="1" fill="#ffffff" opacity="0.8" />
  <circle cx="29" cy="19" r="1" fill="#ffffff" opacity="0.8" />
  <circle cx="19" cy="29" r="1" fill="#ffffff" opacity="0.8" />
  <circle cx="29" cy="29" r="1" fill="#ffffff" opacity="0.8" />
</svg>